# Blender 4.0.2
# www.blender.org
mtllib Creditos.mtl
o Plano.003
v 4.797387 0.000000 3.119210
v 4.042435 0.000000 4.183762
v 3.893334 0.000000 1.944912
v 2.870148 0.000000 3.064337
v 4.408615 0.000000 3.001965
v 3.949948 0.000000 3.665012
v 3.887952 0.000000 2.363790
v 3.368543 0.000000 3.025376
v 5.632313 0.000000 1.591453
v 5.928822 0.000000 1.853750
v 4.849072 0.000000 2.487732
v 5.584643 0.000000 3.286027
v 4.917497 0.000000 4.055810
v 5.369514 0.000000 4.181257
v 6.055820 0.000000 3.264769
v 5.341506 0.000000 2.506390
v 1.809557 0.000000 1.928478
v 3.089109 0.000000 1.777942
v 3.102794 0.000000 2.140596
v 2.651187 0.000000 2.243234
v 2.740140 0.000000 4.364416
v 2.404856 0.000000 4.439684
v 2.254321 0.000000 2.366399
v 1.816399 0.000000 2.469037
v 0.858446 0.000000 1.983218
v 1.467431 0.000000 1.880580
v 1.481116 0.000000 2.229549
v 1.337423 0.000000 2.256919
v 1.419533 0.000000 4.131770
v 1.576911 0.000000 4.124928
v 1.631651 0.000000 4.494424
v 0.954241 0.000000 4.508109
v 0.920029 0.000000 4.213881
v 1.138989 0.000000 4.165983
v 1.043194 0.000000 2.352714
v 0.810548 0.000000 2.345871
v 1.065724 0.000000 1.948283
v 1.303478 0.000000 1.908213
v 2.236074 0.000000 1.878299
v 2.662591 0.000000 1.828121
v 1.405848 0.000000 4.498986
v 1.180045 0.000000 4.503548
v -0.641207 0.000000 2.120069
v -0.407421 0.000000 1.897686
v 0.727298 0.000000 3.163553
v -0.624101 0.000000 4.617590
v -1.348268 0.000000 1.966111
v -0.829377 0.000000 2.792917
v -0.447336 0.000000 2.764406
v -0.384613 0.000000 3.773678
v 0.242619 0.000000 3.169255
v -1.040354 0.000000 2.222706
v -1.867160 0.000000 3.163553
v -1.182907 0.000000 3.095128
v -1.142992 0.000000 3.334616
v -1.901372 0.000000 3.442956
v -0.989036 0.000000 4.423718
v -1.268439 0.000000 4.714526
v -2.471583 0.000000 3.368829
v -1.225103 0.000000 1.774521
v -0.848764 0.000000 1.473450
v -0.602433 0.000000 1.665040
v -0.992457 0.000000 2.041379
v -3.982412 0.000000 4.510162
v -3.637549 0.000000 4.501951
v -3.456906 0.000000 3.475573
v -2.800024 0.000000 4.690805
v -2.537271 0.000000 4.682594
v -3.161309 0.000000 3.229242
v -2.463372 0.000000 2.999333
v -3.777136 0.000000 2.137175
v -3.514383 0.000000 3.007544
v -3.497961 0.000000 2.695525
v -3.144887 0.000000 2.900801
v -4.392963 0.000000 2.186441
v -4.064522 0.000000 2.432772
v -5.090901 0.000000 3.639793
v -4.138422 0.000000 4.518373
v -4.121999 0.000000 4.887870
v -5.641040 0.000000 3.639793
v -3.849768 0.000000 2.976794
v -3.893976 0.000000 3.487848
v 4.797387 0.638250 3.119210
v 4.042435 0.638250 4.183762
v 2.870148 0.638250 3.064337
v 3.893334 0.638250 1.944912
v 3.949948 0.638250 3.665012
v 4.408615 0.638250 3.001965
v 3.368543 0.638250 3.025376
v 3.887952 0.638250 2.363790
v 5.632313 0.638250 1.591453
v 5.928822 0.638250 1.853750
v 4.849072 0.638250 2.487732
v 5.584643 0.638250 3.286027
v 4.917497 0.638250 4.055810
v 5.369514 0.638250 4.181257
v 6.055820 0.638250 3.264769
v 5.341506 0.638250 2.506390
v 2.662591 0.638250 1.828121
v 3.089109 0.638250 1.777942
v 3.102794 0.638250 2.140596
v 2.651187 0.638250 2.243234
v 2.740140 0.638250 4.364416
v 2.404856 0.638250 4.439684
v 2.254321 0.638250 2.366399
v 1.816399 0.638250 2.469037
v 1.809557 0.638250 1.928478
v 1.303478 0.638250 1.908213
v 1.467431 0.638250 1.880580
v 1.481116 0.638250 2.229549
v 1.337423 0.638250 2.256919
v 1.419533 0.638250 4.131770
v 1.576911 0.638250 4.124928
v 1.631651 0.638250 4.494424
v 1.180045 0.638250 4.503548
v 0.954241 0.638250 4.508109
v 0.920029 0.638250 4.213881
v 1.138989 0.638250 4.165983
v 1.043194 0.638250 2.352714
v 0.810548 0.638250 2.345871
v 0.858446 0.638250 1.983218
v 1.065724 0.638250 1.948283
v 2.236074 0.638250 1.878299
v 1.405848 0.638250 4.498986
v -0.641207 0.638250 2.120069
v -0.407421 0.638250 1.897686
v 0.727298 0.638250 3.163553
v -0.624101 0.638250 4.617590
v -0.384613 0.638250 3.773678
v -0.829377 0.638250 2.792917
v -0.447336 0.638250 2.764406
v 0.242619 0.638250 3.169255
v -1.348268 0.638250 1.966111
v -1.040354 0.638250 2.222706
v -1.867160 0.638250 3.163553
v -1.182907 0.638250 3.095128
v -1.142992 0.638250 3.334616
v -1.901372 0.638250 3.442956
v -0.989036 0.638250 4.423718
v -1.268439 0.638250 4.714526
v -2.471583 0.638250 3.368829
v -1.225103 0.638250 1.774521
v -0.848764 0.638250 1.473450
v -0.602433 0.638250 1.665040
v -0.992457 0.638250 2.041379
v -3.982412 0.638250 4.510162
v -3.637549 0.638250 4.501951
v -3.456906 0.638250 3.475573
v -2.800024 0.638250 4.690805
v -2.537271 0.638250 4.682594
v -3.161309 0.638250 3.229242
v -2.463372 0.638250 2.999333
v -3.777136 0.638250 2.137175
v -3.849768 0.638250 2.976794
v -3.514383 0.638250 3.007544
v -3.497961 0.638250 2.695525
v -3.144887 0.638250 2.900801
v -4.392963 0.638250 2.186441
v -4.064522 0.638250 2.432772
v -5.090901 0.638250 3.639793
v -4.138422 0.638250 4.518373
v -4.121999 0.638250 4.887870
v -5.641040 0.638250 3.639793
v -3.893976 0.638250 3.487848
vn -0.0000 -1.0000 -0.0000
vn -0.0000 1.0000 -0.0000
vn -0.8224 -0.0000 -0.5689
vn -0.1168 -0.0000 -0.9932
vn 0.7400 -0.0000 -0.6726
vn 0.7866 -0.0000 0.6175
vn -0.7748 -0.0000 0.6322
vn 0.0202 -0.0000 0.9998
vn -0.9963 -0.0000 -0.0862
vn -0.6892 -0.0000 -0.7246
vn 0.7446 -0.0000 -0.6675
vn 0.7325 -0.0000 0.6808
vn -0.9937 -0.0000 0.1118
vn -0.0744 -0.0000 -0.9972
vn 0.9981 -0.0000 -0.0620
vn 0.6626 -0.0000 -0.7490
vn -0.6939 -0.0000 -0.7201
vn -0.7530 -0.0000 -0.6580
vn -0.7648 -0.0000 0.6443
vn -0.7354 -0.0000 0.6776
vn -0.7557 -0.0000 -0.6549
vn 0.6402 -0.0000 -0.7682
vn -0.2674 -0.0000 0.9636
vn 0.7512 -0.0000 0.6601
vn 0.8004 -0.0000 0.5994
vn -0.0995 -0.0000 -0.9950
vn 0.7279 -0.0000 -0.6856
vn 0.9864 -0.0000 -0.1644
vn 0.7433 -0.0000 0.6689
vn 0.1414 -0.0000 0.9899
vn 0.7322 -0.0000 -0.6811
vn 0.7211 -0.0000 0.6928
vn -0.7455 -0.0000 0.6665
vn 0.9993 -0.0000 -0.0377
vn -0.7806 -0.0000 -0.6251
vn 0.2216 -0.0000 0.9751
vn 0.9991 -0.0000 -0.0419
vn 0.2190 -0.0000 0.9757
vn -0.9974 -0.0000 0.0724
vn -0.6247 -0.0000 -0.7809
vn 0.2282 -0.0000 0.9736
vn 0.6139 -0.0000 -0.7894
vn -0.9999 -0.0000 0.0127
vn 0.6944 -0.0000 0.7196
vn -0.1662 -0.0000 -0.9861
vn -0.7538 -0.0000 0.6571
vn 0.9992 -0.0000 -0.0392
vn 0.0238 -0.0000 0.9997
vn 0.1871 -0.0000 0.9823
vn 0.9849 -0.0000 0.1733
vn 0.9990 -0.0000 -0.0438
vn -0.8797 -0.0000 0.4755
vn -0.0434 -0.0000 -0.9991
vn 0.0312 -0.0000 0.9995
vn 0.9892 -0.0000 -0.1465
vn 0.9189 -0.0000 -0.3945
vn 0.3129 -0.0000 0.9498
vn -0.9933 -0.0000 0.1155
vn 0.5487 -0.0000 -0.8360
vn -0.2137 -0.0000 -0.9769
vn -0.9986 -0.0000 0.0528
vn 0.9986 -0.0000 0.0526
vn -0.0294 -0.0000 0.9996
vn -0.5026 -0.0000 0.8645
vn -0.9914 -0.0000 -0.1309
vn -0.2775 -0.0000 -0.9607
vn 0.6000 -0.0000 -0.8000
vn 0.7618 -0.0000 0.6478
vn 0.6780 -0.0000 -0.7350
vn 0.8157 -0.0000 0.5785
vn 0.9990 -0.0000 -0.0444
vn -0.6906 -0.0000 0.7232
vn -0.6348 -0.0000 0.7727
vn -0.7381 -0.0000 -0.6747
vn -0.7587 -0.0000 -0.6515
vn 0.7924 -0.0000 -0.6100
vt 0.000000 0.000000
s 0
f 3/1/1 7/1/1 8/1/1 4/1/1
f 2/1/1 6/1/1 5/1/1 1/1/1
f 1/1/1 5/1/1 7/1/1 3/1/1
f 4/1/1 8/1/1 6/1/1 2/1/1
f 9/1/1 10/1/1 16/1/1 11/1/1
f 12/1/1 11/1/1 16/1/1 15/1/1
f 13/1/1 12/1/1 15/1/1 14/1/1
f 38/1/1 26/1/1 27/1/1 28/1/1
f 28/1/1 35/1/1 37/1/1 38/1/1
f 36/1/1 25/1/1 37/1/1 35/1/1
f 24/1/1 17/1/1 39/1/1 23/1/1
f 39/1/1 40/1/1 20/1/1 23/1/1
f 40/1/1 18/1/1 19/1/1 20/1/1
f 21/1/1 22/1/1 23/1/1 20/1/1
f 30/1/1 31/1/1 41/1/1 29/1/1
f 34/1/1 29/1/1 41/1/1 42/1/1
f 42/1/1 32/1/1 33/1/1 34/1/1
f 28/1/1 29/1/1 34/1/1 35/1/1
f 44/1/1 45/1/1 51/1/1 43/1/1
f 45/1/1 46/1/1 50/1/1 51/1/1
f 49/1/1 50/1/1 46/1/1 48/1/1
f 53/1/1 56/1/1 59/1/1
f 61/1/1 62/1/1 63/1/1 60/1/1
f 52/1/1 53/1/1 59/1/1 47/1/1
f 54/1/1 55/1/1 56/1/1 53/1/1
f 56/1/1 57/1/1 58/1/1 59/1/1
f 65/1/1 64/1/1 82/1/1 66/1/1
f 67/1/1 66/1/1 69/1/1 68/1/1
f 72/1/1 69/1/1 66/1/1
f 70/1/1 69/1/1 72/1/1 74/1/1
f 70/1/1 74/1/1 73/1/1 71/1/1
f 71/1/1 73/1/1 72/1/1 81/1/1
f 72/1/1 66/1/1 82/1/1 81/1/1
f 76/1/1 77/1/1 80/1/1 75/1/1
f 78/1/1 79/1/1 80/1/1 77/1/1
f 86/1/2 85/1/2 89/1/2 90/1/2
f 84/1/2 83/1/2 88/1/2 87/1/2
f 83/1/2 86/1/2 90/1/2 88/1/2
f 85/1/2 84/1/2 87/1/2 89/1/2
f 91/1/2 93/1/2 98/1/2 92/1/2
f 94/1/2 97/1/2 98/1/2 93/1/2
f 95/1/2 96/1/2 97/1/2 94/1/2
f 108/1/2 111/1/2 110/1/2 109/1/2
f 111/1/2 108/1/2 122/1/2 119/1/2
f 120/1/2 119/1/2 122/1/2 121/1/2
f 106/1/2 105/1/2 123/1/2 107/1/2
f 123/1/2 105/1/2 102/1/2 99/1/2
f 99/1/2 102/1/2 101/1/2 100/1/2
f 103/1/2 102/1/2 105/1/2 104/1/2
f 113/1/2 112/1/2 124/1/2 114/1/2
f 118/1/2 115/1/2 124/1/2 112/1/2
f 115/1/2 118/1/2 117/1/2 116/1/2
f 111/1/2 119/1/2 118/1/2 112/1/2
f 126/1/2 125/1/2 132/1/2 127/1/2
f 127/1/2 132/1/2 129/1/2 128/1/2
f 131/1/2 130/1/2 128/1/2 129/1/2
f 135/1/2 141/1/2 138/1/2
f 143/1/2 142/1/2 145/1/2 144/1/2
f 134/1/2 133/1/2 141/1/2 135/1/2
f 136/1/2 135/1/2 138/1/2 137/1/2
f 138/1/2 141/1/2 140/1/2 139/1/2
f 147/1/2 148/1/2 164/1/2 146/1/2
f 149/1/2 150/1/2 151/1/2 148/1/2
f 155/1/2 148/1/2 151/1/2
f 152/1/2 157/1/2 155/1/2 151/1/2
f 152/1/2 153/1/2 156/1/2 157/1/2
f 153/1/2 154/1/2 155/1/2 156/1/2
f 155/1/2 154/1/2 164/1/2 148/1/2
f 159/1/2 158/1/2 163/1/2 160/1/2
f 161/1/2 160/1/2 163/1/2 162/1/2
f 5/1/3 6/1/3 87/1/3 88/1/3
f 39/1/4 123/1/4 99/1/4 40/1/4
f 6/1/5 8/1/5 89/1/5 87/1/5
f 8/1/6 7/1/6 90/1/6 89/1/6
f 7/1/7 5/1/7 88/1/7 90/1/7
f 31/1/8 114/1/8 124/1/8 41/1/8
f 41/1/8 124/1/8 115/1/8 42/1/8
f 81/1/9 82/1/9 164/1/9 154/1/9
f 82/1/9 64/1/9 146/1/9 164/1/9
f 43/1/10 125/1/10 126/1/10 44/1/10
f 44/1/11 126/1/11 127/1/11 45/1/11
f 45/1/12 127/1/12 128/1/12 46/1/12
f 46/1/13 128/1/13 130/1/13 48/1/13
f 48/1/14 130/1/14 131/1/14 49/1/14
f 49/1/15 131/1/15 129/1/15 50/1/15
f 10/1/16 9/1/16 91/1/16 92/1/16
f 50/1/17 129/1/17 132/1/17 51/1/17
f 9/1/18 11/1/18 93/1/18 91/1/18
f 51/1/19 132/1/19 125/1/19 43/1/19
f 11/1/20 12/1/20 94/1/20 93/1/20
f 12/1/21 13/1/21 95/1/21 94/1/21
f 52/1/22 47/1/22 133/1/22 134/1/22
f 13/1/23 14/1/23 96/1/23 95/1/23
f 53/1/24 52/1/24 134/1/24 135/1/24
f 14/1/25 15/1/25 97/1/25 96/1/25
f 54/1/26 53/1/26 135/1/26 136/1/26
f 15/1/27 16/1/27 98/1/27 97/1/27
f 55/1/28 54/1/28 136/1/28 137/1/28
f 16/1/29 10/1/29 92/1/29 98/1/29
f 56/1/30 55/1/30 137/1/30 138/1/30
f 57/1/31 56/1/31 138/1/31 139/1/31
f 58/1/32 57/1/32 139/1/32 140/1/32
f 40/1/4 99/1/4 100/1/4 18/1/4
f 59/1/33 58/1/33 140/1/33 141/1/33
f 18/1/34 100/1/34 101/1/34 19/1/34
f 47/1/35 59/1/35 141/1/35 133/1/35
f 19/1/36 101/1/36 102/1/36 20/1/36
f 20/1/37 102/1/37 103/1/37 21/1/37
f 21/1/38 103/1/38 104/1/38 22/1/38
f 22/1/39 104/1/39 105/1/39 23/1/39
f 60/1/40 142/1/40 143/1/40 61/1/40
f 23/1/41 105/1/41 106/1/41 24/1/41
f 61/1/42 143/1/42 144/1/42 62/1/42
f 24/1/43 106/1/43 107/1/43 17/1/43
f 62/1/44 144/1/44 145/1/44 63/1/44
f 26/1/45 38/1/45 108/1/45 109/1/45
f 63/1/46 145/1/46 142/1/46 60/1/46
f 27/1/47 26/1/47 109/1/47 110/1/47
f 64/1/48 65/1/48 147/1/48 146/1/48
f 28/1/49 27/1/49 110/1/49 111/1/49
f 65/1/50 66/1/50 148/1/50 147/1/50
f 28/1/51 111/1/51 112/1/51 29/1/51
f 66/1/52 67/1/52 149/1/52 148/1/52
f 29/1/53 112/1/53 113/1/53 30/1/53
f 67/1/54 68/1/54 150/1/54 149/1/54
f 30/1/55 113/1/55 114/1/55 31/1/55
f 68/1/56 69/1/56 151/1/56 150/1/56
f 42/1/8 115/1/8 116/1/8 32/1/8
f 69/1/57 70/1/57 152/1/57 151/1/57
f 32/1/58 116/1/58 117/1/58 33/1/58
f 70/1/59 71/1/59 153/1/59 152/1/59
f 33/1/60 117/1/60 118/1/60 34/1/60
f 71/1/9 81/1/9 154/1/9 153/1/9
f 34/1/61 118/1/61 119/1/61 35/1/61
f 72/1/62 73/1/62 156/1/62 155/1/62
f 36/1/63 35/1/63 119/1/63 120/1/63
f 73/1/64 74/1/64 157/1/64 156/1/64
f 25/1/65 36/1/65 120/1/65 121/1/65
f 74/1/66 72/1/66 155/1/66 157/1/66
f 75/1/67 158/1/67 159/1/67 76/1/67
f 76/1/68 159/1/68 160/1/68 77/1/68
f 37/1/45 25/1/45 121/1/45 122/1/45
f 77/1/69 160/1/69 161/1/69 78/1/69
f 2/1/70 1/1/70 83/1/70 84/1/70
f 38/1/45 37/1/45 122/1/45 108/1/45
f 78/1/71 161/1/71 162/1/71 79/1/71
f 4/1/72 2/1/72 84/1/72 85/1/72
f 79/1/73 162/1/73 163/1/73 80/1/73
f 3/1/74 4/1/74 85/1/74 86/1/74
f 80/1/75 163/1/75 158/1/75 75/1/75
f 1/1/76 3/1/76 86/1/76 83/1/76
f 17/1/4 107/1/4 123/1/4 39/1/4
