# Blender 4.0.2
# www.blender.org
mtllib PedacoD.mtl
o Plano.016
v -0.072684 0.001436 -0.280181
v -0.064045 0.057606 -0.362376
v -0.061285 0.120672 -0.388632
v -0.074624 -0.050494 -0.261720
v -0.068383 0.032599 -0.321097
v -0.061921 0.090110 -0.382580
v -0.029080 -0.104026 -0.247201
v 0.062842 -0.004855 -0.247283
v 0.047583 0.022419 -0.254334
v -0.061461 0.130396 -0.386957
v 0.043597 0.049247 -0.292183
v 0.040869 0.064294 -0.331289
v 0.059025 -0.016461 -0.243929
v 0.013705 0.112496 -0.360287
v 0.036645 0.074372 -0.336522
v -0.049730 0.120672 -0.384877
v 0.020909 0.102195 -0.355912
v -0.012207 0.100526 -0.366638
v -0.074903 0.006848 -0.273351
v -0.066057 0.063809 -0.356184
v -0.064064 0.120780 -0.380080
v -0.077335 -0.048522 -0.253375
v -0.069952 0.040023 -0.316271
v -0.064520 0.093292 -0.374581
v -0.031859 -0.104071 -0.238649
v 0.059006 -0.002410 -0.239209
v 0.011253 0.010605 -0.247667
v -0.064201 0.128894 -0.378525
v 0.041670 0.056391 -0.287314
v 0.040363 0.074818 -0.325151
v 0.054549 -0.015606 -0.235514
v 0.010990 0.114406 -0.351892
v 0.034311 0.079665 -0.329225
v -0.052491 0.121698 -0.376380
v 0.018424 0.106394 -0.348207
v -0.014672 0.104882 -0.358984
vn 0.8143 -0.4878 -0.3147
vn 0.1003 -0.8964 -0.4318
vn -0.5627 -0.4077 -0.7191
vn 0.7613 -0.3865 -0.5207
vn 0.9070 -0.3933 -0.1506
vn -0.5476 -0.6772 -0.4915
vn -0.4648 -0.5885 -0.6615
vn 0.7692 0.0240 -0.6386
vn -0.4219 -0.2975 -0.8564
vn 0.3443 0.2139 -0.9142
vn 0.7757 0.1173 -0.6202
vn 0.9043 0.4265 0.0190
vn 0.9762 -0.0544 -0.2100
vn -0.5850 -0.4141 -0.6973
vn -0.1929 0.8097 -0.5543
vn 0.5800 0.4486 -0.6800
vn -0.4127 -0.0138 -0.9108
vn 0.4092 0.6039 -0.6840
vn 0.4254 -0.1962 0.8835
vn -0.8499 -0.1540 0.5040
vn -0.1946 -0.7250 0.6607
vn 0.6503 0.7236 0.2314
vn -0.9080 0.3277 0.2610
vn -0.8305 0.4947 0.2560
vn 0.2383 0.7861 0.5704
vn 0.4900 0.7111 0.5041
vn 0.4237 0.6855 0.5921
vn -0.1684 0.8640 0.4745
vn -0.9178 0.1617 0.3626
vn -0.1510 0.5236 0.8385
vn -0.8083 0.3576 0.4677
vn 0.3381 0.2870 0.8963
vn -0.5559 0.6680 0.4947
vn -0.9240 0.0093 0.3823
vn 0.1502 0.7043 0.6938
vn 0.0586 0.8967 0.4388
vt 0.865014 0.228502
vt 0.873226 0.235790
vt 0.859321 0.238143
vt 0.887428 0.078055
vt 0.887958 0.086472
vt 0.870591 0.085707
vt 0.870838 0.077426
vt 0.887896 0.076060
vt 0.871040 0.071201
vt 0.879130 0.071501
vt 0.884573 0.071703
vt 0.858241 0.220192
vt 0.863286 0.227343
vt 0.851039 0.232591
vt 0.887944 0.096535
vt 0.870286 0.096187
vt 0.871250 0.064660
vt 0.873073 0.066308
vt 0.871192 0.066237
vt 0.883344 0.070051
s 1
usemtl Materiais
f 13/1/1 7/2/2 4/3/3
f 12/4/4 11/5/5 5/6/6 2/7/7
f 15/8/8 12/4/4 2/7/7 6/9/9 18/10/10 17/11/11
f 9/12/12 8/13/13 13/1/1 4/3/3 1/14/14
f 11/5/5 9/15/12 1/16/14 5/6/6
f 10/17/15 16/18/16 3/19/17
f 18/10/10 14/20/18 17/11/11
f 16/18/16 18/10/10 6/9/9 3/19/17
f 31/1/19 22/3/20 25/2/21
f 30/4/22 20/7/23 23/6/24 29/5/25
f 33/8/26 35/11/27 36/10/28 24/9/29 20/7/23 30/4/22
f 27/12/30 19/14/31 22/3/20 31/1/19 26/13/32
f 29/5/25 23/6/24 19/16/31 27/15/30
f 28/17/33 21/19/34 34/18/35
f 36/10/28 35/11/27 32/20/36
f 34/18/35 21/19/34 24/9/29 36/10/28
f 3/19/17 6/9/9 24/9/29 21/19/34
f 5/6/6 1/16/14 19/16/31 23/6/24
f 2/7/7 5/6/6 23/6/24 20/7/23
f 1/14/14 4/3/3 22/3/20 19/14/31
f 6/9/9 2/7/7 20/7/23 24/9/29
f 12/4/4 15/8/8 33/8/26 30/4/22
f 11/5/5 12/4/4 30/4/22 29/5/25
f 4/3/3 7/2/2 25/2/21 22/3/20
f 7/2/2 13/1/1 31/1/19 25/2/21
f 13/1/1 8/13/13 26/13/32 31/1/19
f 8/13/13 9/12/12 27/12/30 26/13/32
f 9/15/12 11/5/5 29/5/25 27/15/30
f 10/17/15 3/19/17 21/19/34 28/17/33
f 16/18/16 10/17/15 28/17/33 34/18/35
f 18/10/10 16/18/16 34/18/35 36/10/28
f 14/20/18 18/10/10 36/10/28 32/20/36
f 17/11/11 14/20/18 32/20/36 35/11/27
f 15/8/8 17/11/11 35/11/27 33/8/26
