# Blender 4.0.2
# www.blender.org
mtllib Pedaco6.mtl
o Plano.006
v -0.099993 0.068826 -0.290400
v -0.082328 0.005760 -0.270781
v -0.027026 -0.050409 -0.209362
v 0.042609 0.038264 -0.365859
v 0.061713 -0.019247 -0.307064
v 0.048887 0.005760 -0.346538
v -0.054555 -0.019247 -0.239936
v -0.095922 0.038264 -0.285878
v -0.075564 0.093739 -0.263268
v -0.098867 0.078550 -0.289149
v -0.092721 0.088047 -0.282323
v 0.041500 0.056300 -0.369274
v 0.055671 0.038264 -0.367232
v 0.031657 0.068826 -0.366409
v 0.024017 0.078550 -0.360096
v 0.012082 0.093739 -0.313870
v 0.081210 0.005760 -0.349936
v 0.016556 0.088047 -0.345414
v 0.065127 -0.027615 -0.296556
v 0.069160 -0.019247 -0.307846
v 0.054144 -0.050409 -0.256225
v 0.061578 -0.102340 -0.239551
v 0.042498 -0.074576 -0.239745
v -0.095497 0.068934 -0.282613
v -0.079073 0.011963 -0.265142
v -0.023825 -0.044094 -0.203818
v 0.045201 0.041508 -0.357883
v 0.063258 -0.011771 -0.302310
v 0.050878 0.012035 -0.340412
v -0.052018 -0.011823 -0.235541
v -0.091716 0.041446 -0.278594
v -0.074568 0.084970 -0.261544
v -0.094808 0.074682 -0.282118
v -0.090361 0.080392 -0.278235
v 0.045268 0.058042 -0.361298
v 0.056521 0.042106 -0.359146
v 0.036132 0.069715 -0.358659
v 0.028301 0.075821 -0.352675
v 0.013077 0.084970 -0.312147
v 0.081860 0.012258 -0.343753
v 0.019284 0.080899 -0.340688
v 0.067527 -0.020473 -0.291647
v 0.069686 -0.011792 -0.302844
v 0.057453 -0.044322 -0.250493
v 0.065822 -0.099372 -0.232199
v 0.046743 -0.071608 -0.232393
vn 0.1902 0.2594 -0.9468
vn 0.4501 0.0184 -0.8928
vn -0.2882 -0.3607 -0.8870
vn 0.7088 -0.4020 -0.5797
vn -0.2214 -0.6977 -0.6813
vn 0.0775 0.4246 -0.9020
vn -0.9207 -0.3087 -0.2387
vn -0.9557 -0.0083 -0.2941
vn 0.6363 -0.7149 -0.2900
vn 0.4615 -0.8068 -0.3689
vn -0.1718 -0.8313 -0.5286
vn -0.6998 0.7111 0.0682
vn 0.3044 0.8968 -0.3210
vn 0.0956 0.7235 -0.6837
vn -0.8951 0.3850 -0.2251
vn 0.5402 0.7886 0.2936
vn -0.1963 0.7223 0.6631
vn -0.8067 -0.5856 -0.0796
vn 0.4296 -0.7697 -0.4723
vn -0.6277 -0.7509 0.2053
vn -0.7545 -0.6494 0.0947
vn 0.4518 -0.2159 -0.8656
vn 0.5733 -0.7258 -0.3802
vn 0.7960 0.5438 0.2657
vn 0.2901 0.3629 0.8855
vn 0.6676 0.6688 0.3270
vn 0.2184 0.6987 0.6813
vn 0.8280 0.4972 0.2592
vn 0.7646 0.5855 0.2693
vn -0.3247 0.0068 0.9458
vn -0.3326 0.1751 0.9267
vn 0.7225 0.4667 0.5101
vn 0.1695 0.8323 0.5277
vn 0.8639 0.3039 0.4015
vn -0.4415 -0.4686 0.7652
vn -0.3907 -0.1921 0.9003
vn 0.8016 0.3484 0.4858
vn 0.8576 -0.2493 0.4499
vn 0.7141 -0.4309 0.5517
vn -0.0715 -0.4363 0.8970
vn -0.3897 0.3573 0.8488
vn -0.3443 0.5248 0.7785
vn -0.2001 0.1360 0.9703
vn 0.8678 0.2242 0.4434
vn 0.8559 -0.2210 0.4675
vn 0.9681 0.1970 0.1546
vt 0.845943 0.067441
vt 0.847948 0.070422
vt 0.845882 0.070352
vt 0.851114 0.076816
vt 0.845727 0.076649
vt 0.844368 0.065381
vt 0.820777 0.069823
vt 0.820881 0.064834
vt 0.846920 0.085366
vt 0.845458 0.088018
vt 0.845522 0.085346
vt 0.820969 0.061138
vt 0.841042 0.061619
vt 0.842945 0.063778
vt 0.820916 0.063252
vt 0.838332 0.057233
vt 0.821055 0.056973
vt 0.820652 0.076129
vt 0.840287 0.095238
vt 0.820286 0.095003
vt 0.820488 0.084460
vt 0.836273 0.250434
vt 0.837214 0.255576
vt 0.843136 0.257194
vt 0.825166 0.260457
s 1
usemtl Materiais
f 12/1/1 13/2/2 4/3/3
f 13/2/2 17/4/4 6/5/5 4/3/3
f 14/6/6 12/1/1 4/3/3 8/7/7 1/8/8
f 20/9/9 19/10/10 5/11/11
f 17/4/4 20/9/9 5/11/11 6/5/5
f 11/12/12 18/13/13 15/14/14 10/15/15
f 16/16/16 18/13/13 11/12/12 9/17/17
f 15/14/14 14/6/6 1/8/8 10/15/15
f 4/3/3 6/5/5 2/18/18 8/7/7
f 5/11/11 19/10/10 21/19/19 3/20/20 7/21/21
f 6/5/5 5/11/11 7/21/21 2/18/18
f 21/22/19 23/23/22 22/24/23 3/25/20
f 35/1/24 27/3/25 36/2/26
f 36/2/26 27/3/25 29/5/27 40/4/28
f 37/6/29 24/8/30 31/7/31 27/3/25 35/1/24
f 43/9/32 28/11/33 42/10/34
f 40/4/28 29/5/27 28/11/33 43/9/32
f 34/12/35 33/15/36 38/14/37 41/13/38
f 39/16/39 32/17/40 34/12/35 41/13/38
f 38/14/37 33/15/36 24/8/30 37/6/29
f 27/3/25 31/7/31 25/18/41 29/5/27
f 28/11/33 30/21/42 26/20/43 44/19/44 42/10/34
f 29/5/27 25/18/41 30/21/42 28/11/33
f 44/22/44 26/25/43 45/24/45 46/23/46
f 10/15/15 1/8/8 24/8/30 33/15/36
f 9/17/17 11/12/12 34/12/35 32/17/40
f 11/12/12 10/15/15 33/15/36 34/12/35
f 16/16/16 9/17/17 32/17/40 39/16/39
f 8/7/7 2/18/18 25/18/41 31/7/31
f 1/8/8 8/7/7 31/7/31 24/8/30
f 7/21/21 3/20/20 26/20/43 30/21/42
f 2/18/18 7/21/21 30/21/42 25/18/41
f 15/14/14 18/13/13 41/13/38 38/14/37
f 17/4/4 13/2/2 36/2/26 40/4/28
f 12/1/1 14/6/6 37/6/29 35/1/24
f 18/13/13 16/16/16 39/16/39 41/13/38
f 14/6/6 15/14/14 38/14/37 37/6/29
f 13/2/2 12/1/1 35/1/24 36/2/26
f 20/9/9 17/4/4 40/4/28 43/9/32
f 19/10/10 20/9/9 43/9/32 42/10/34
f 21/19/19 19/10/10 42/10/34 44/19/44
f 23/23/22 21/22/19 44/22/44 46/23/46
f 22/24/23 23/23/22 46/23/46 45/24/45
f 3/25/20 22/24/23 45/24/45 26/25/43
