# Blender 4.0.2
# www.blender.org
mtllib Pedaco3.mtl
o Plano.007
v -0.036806 -0.005154 -0.280181
v -0.028167 0.051015 -0.362376
v -0.025408 0.114081 -0.388632
v -0.038747 -0.057085 -0.261720
v -0.032506 0.026008 -0.321097
v -0.026044 0.083519 -0.382580
v 0.006797 -0.110617 -0.247201
v 0.017858 -0.046327 -0.247283
v 0.042744 -0.005154 -0.254334
v -0.025584 0.123805 -0.386957
v 0.056484 0.026008 -0.292183
v 0.067510 0.051015 -0.331289
v 0.016007 -0.057085 -0.243929
v 0.048802 0.093412 -0.360287
v 0.072129 0.061491 -0.336522
v -0.013853 0.114081 -0.384877
v 0.056032 0.083519 -0.355912
v 0.023020 0.083519 -0.366638
v -0.039026 0.000258 -0.273351
v -0.030179 0.057218 -0.356184
v -0.028186 0.114189 -0.380080
v -0.041458 -0.055113 -0.253375
v -0.034074 0.033432 -0.316271
v -0.028643 0.086701 -0.374581
v 0.004019 -0.110661 -0.238649
v 0.015235 -0.043359 -0.239209
v 0.040578 0.000479 -0.247667
v -0.028323 0.122304 -0.378525
v 0.054902 0.033402 -0.287314
v 0.065516 0.057278 -0.325151
v 0.013273 -0.055479 -0.235514
v 0.046074 0.095131 -0.351892
v 0.069758 0.066182 -0.329225
v -0.016613 0.115108 -0.376380
v 0.053528 0.087423 -0.348207
v 0.020533 0.087530 -0.358984
vn 0.9083 -0.2053 -0.3644
vn 0.3769 -0.8364 -0.3980
vn -0.5221 -0.4326 -0.7350
vn 0.7473 -0.5925 -0.3008
vn 0.8120 -0.5639 -0.1505
vn -0.5729 -0.6503 -0.4988
vn -0.4807 -0.5856 -0.6527
vn 0.9253 -0.1629 -0.3424
vn -0.4387 -0.3087 -0.8440
vn 0.3815 0.1304 -0.9151
vn 0.7534 0.0918 -0.6512
vn 0.8449 -0.5260 -0.0975
vn 0.8700 -0.3933 -0.2975
vn -0.5848 -0.4541 -0.6722
vn -0.1929 0.8097 -0.5543
vn 0.6230 0.4524 -0.6381
vn -0.4196 -0.0100 -0.9077
vn 0.4213 0.6002 -0.6799
vn 0.4247 0.0525 0.9038
vn -0.8799 -0.1282 0.4576
vn 0.0191 -0.7700 0.6378
vn 0.5315 0.4146 0.7386
vn -0.8921 0.3559 0.2785
vn -0.8099 0.5234 0.2646
vn 0.5420 0.5882 0.6003
vn 0.5797 0.4793 0.6589
vn 0.4064 0.7329 0.5457
vn -0.0668 0.8626 0.5015
vn -0.9111 0.1757 0.3728
vn 0.4544 0.3148 0.8333
vn -0.8057 0.4051 0.4322
vn 0.4541 0.0589 0.8890
vn -0.5559 0.6680 0.4947
vn -0.9211 0.0055 0.3892
vn 0.2317 0.6679 0.7072
vn 0.0702 0.8866 0.4573
vt 0.865014 0.228502
vt 0.873226 0.235790
vt 0.859321 0.238143
vt 0.887428 0.078055
vt 0.887958 0.086472
vt 0.870591 0.085707
vt 0.870838 0.077426
vt 0.887896 0.076060
vt 0.871040 0.071201
vt 0.879130 0.071501
vt 0.884573 0.071703
vt 0.858241 0.220192
vt 0.863286 0.227343
vt 0.851039 0.232591
vt 0.887944 0.096535
vt 0.870286 0.096187
vt 0.871250 0.064660
vt 0.873073 0.066308
vt 0.871192 0.066237
vt 0.883344 0.070051
s 1
usemtl Materiais
f 13/1/1 7/2/2 4/3/3
f 12/4/4 11/5/5 5/6/6 2/7/7
f 15/8/8 12/4/4 2/7/7 6/9/9 18/10/10 17/11/11
f 9/12/12 8/13/13 13/1/1 4/3/3 1/14/14
f 11/5/5 9/15/12 1/16/14 5/6/6
f 10/17/15 16/18/16 3/19/17
f 18/10/10 14/20/18 17/11/11
f 16/18/16 18/10/10 6/9/9 3/19/17
f 31/1/19 22/3/20 25/2/21
f 30/4/22 20/7/23 23/6/24 29/5/25
f 33/8/26 35/11/27 36/10/28 24/9/29 20/7/23 30/4/22
f 27/12/30 19/14/31 22/3/20 31/1/19 26/13/32
f 29/5/25 23/6/24 19/16/31 27/15/30
f 28/17/33 21/19/34 34/18/35
f 36/10/28 35/11/27 32/20/36
f 34/18/35 21/19/34 24/9/29 36/10/28
f 3/19/17 6/9/9 24/9/29 21/19/34
f 5/6/6 1/16/14 19/16/31 23/6/24
f 2/7/7 5/6/6 23/6/24 20/7/23
f 1/14/14 4/3/3 22/3/20 19/14/31
f 6/9/9 2/7/7 20/7/23 24/9/29
f 12/4/4 15/8/8 33/8/26 30/4/22
f 11/5/5 12/4/4 30/4/22 29/5/25
f 4/3/3 7/2/2 25/2/21 22/3/20
f 7/2/2 13/1/1 31/1/19 25/2/21
f 13/1/1 8/13/13 26/13/32 31/1/19
f 8/13/13 9/12/12 27/12/30 26/13/32
f 9/15/12 11/5/5 29/5/25 27/15/30
f 10/17/15 3/19/17 21/19/34 28/17/33
f 16/18/16 10/17/15 28/17/33 34/18/35
f 18/10/10 16/18/16 34/18/35 36/10/28
f 14/20/18 18/10/10 36/10/28 32/20/36
f 17/11/11 14/20/18 32/20/36 35/11/27
f 15/8/8 17/11/11 35/11/27 33/8/26
