# Blender 4.0.2
# www.blender.org
mtllib Pedaco4.mtl
o Plano.005
v 0.066910 -0.099747 -0.280181
v 0.075548 -0.043577 -0.362376
v 0.078308 0.019489 -0.388632
v 0.071210 -0.068584 -0.321097
v 0.077672 -0.011074 -0.382580
v -0.083294 0.019489 -0.371646
v 0.074492 0.044402 -0.352322
v -0.072012 0.044402 -0.336924
v 0.078132 0.029213 -0.386957
v 0.077172 0.038709 -0.377823
v -0.082774 0.029213 -0.370045
v -0.079935 0.038709 -0.361310
v -0.082523 0.006962 -0.369274
v -0.068352 -0.011074 -0.367232
v -0.092366 0.019489 -0.366409
v -0.100006 0.029213 -0.360096
v -0.111941 0.044402 -0.313870
v -0.042813 -0.043577 -0.349936
v 0.011231 -0.043577 -0.355616
v -0.107467 0.038709 -0.345414
v 0.036020 -0.068584 -0.317399
v -0.004792 -0.027412 -0.363869
v 0.067485 -0.092637 -0.274705
v 0.076229 -0.037374 -0.355901
v 0.079248 0.019597 -0.379689
v 0.071740 -0.061160 -0.316050
v 0.078551 -0.007891 -0.374215
v -0.080515 0.019599 -0.363095
v 0.074700 0.035632 -0.350342
v -0.071410 0.035623 -0.335070
v 0.078981 0.025345 -0.378883
v 0.077665 0.031055 -0.373128
v -0.080275 0.025275 -0.362356
v -0.078500 0.031009 -0.356892
v -0.080818 0.008706 -0.360619
v -0.067455 -0.008384 -0.358698
v -0.087880 0.018877 -0.358639
v -0.096331 0.024031 -0.353731
v -0.110946 0.035632 -0.312147
v -0.042011 -0.038886 -0.342305
v 0.011945 -0.037730 -0.348821
v -0.105842 0.030325 -0.342598
v 0.036543 -0.061111 -0.312424
v -0.003990 -0.022722 -0.356238
vn 0.6059 -0.5856 -0.5385
vn 0.6681 -0.6485 -0.3650
vn -0.6518 -0.7557 -0.0633
vn -0.5693 -0.7606 -0.3121
vn 0.1694 -0.9301 0.3260
vn 0.6003 -0.0083 -0.7997
vn 0.6045 -0.3087 -0.7343
vn -0.6123 -0.5900 -0.5263
vn -0.6517 -0.5466 -0.5258
vn -0.3090 -0.0122 -0.9510
vn -0.7824 -0.3820 -0.4918
vn -0.1811 -0.9823 -0.0487
vn -0.2279 -0.9693 -0.0924
vn 0.5493 0.7211 0.4223
vn 0.6062 0.7111 -0.3561
vn -0.1596 0.8563 -0.4912
vn 0.1428 0.8872 0.4388
vn -0.7972 0.4778 -0.3691
vn -0.5389 0.5918 0.5994
vn -0.2778 0.4379 -0.8550
vn -0.8027 0.0226 -0.5960
vn 0.5918 0.3850 -0.7082
vn 0.8142 0.3584 0.4568
vn -0.5339 0.1630 0.8297
vn -0.5726 0.4110 0.7094
vn 0.7347 0.5262 0.4282
vn 0.2335 -0.0569 0.9707
vn 0.8177 0.0219 0.5752
vn 0.3018 0.0381 0.9526
vn -0.4135 -0.3008 0.8594
vn -0.5091 -0.1848 0.8407
vn 0.8138 0.1797 0.5526
vn -0.1141 -0.5088 0.8533
vn -0.1289 -0.3828 0.9148
vn -0.0700 -0.3384 0.9384
vn 0.5836 -0.4356 0.6853
vn 0.2525 -0.5898 0.7671
vn 0.1604 -0.8591 0.4861
vn 0.8081 -0.4576 0.3710
vn -0.3969 -0.4863 0.7785
vn -0.5886 -0.8081 0.0252
vn 0.2801 -0.4109 0.8676
vn -0.2891 -0.8632 0.4140
vn 0.8444 -0.1724 0.5072
vt 0.870838 0.077426
vt 0.870591 0.085707
vt 0.863984 0.085612
vt 0.860120 0.077095
vt 0.870286 0.096187
vt 0.871192 0.066237
vt 0.871040 0.071201
vt 0.847948 0.070422
vt 0.845943 0.067441
vt 0.845986 0.065418
vt 0.844368 0.065381
vt 0.857727 0.073903
vt 0.851114 0.076816
vt 0.871420 0.058229
vt 0.871326 0.062519
vt 0.846099 0.061740
vt 0.846203 0.057351
vt 0.841042 0.061619
vt 0.838332 0.057233
vt 0.846034 0.063852
vt 0.842945 0.063778
vt 0.871250 0.064660
s 1
usemtl Materiais
f 2/1/1 4/2/2 21/3/3 19/4/4
f 4/2/2 1/5/5 21/3/3
f 3/6/6 5/7/7 14/8/8 13/9/9 6/10/10
f 6/10/10 13/9/9 15/11/11
f 5/7/7 2/1/1 19/4/4 22/12/12 18/13/13 14/8/8
f 7/14/14 10/15/15 12/16/16 8/17/17
f 8/17/17 12/16/16 20/18/18 17/19/19
f 11/20/20 6/10/10 15/11/11 16/21/21
f 9/22/22 3/6/6 6/10/10 11/20/20
f 12/16/16 10/15/15 9/22/22 11/20/20
f 16/21/21 20/18/18 12/16/16 11/20/20
f 24/1/23 41/4/24 43/3/25 26/2/26
f 26/2/26 43/3/25 23/5/27
f 25/6/28 28/10/29 35/9/30 36/8/31 27/7/32
f 28/10/29 37/11/33 35/9/30
f 27/7/32 36/8/31 40/13/34 44/12/35 41/4/24 24/1/23
f 29/14/36 30/17/37 34/16/38 32/15/39
f 30/17/37 39/19/40 42/18/41 34/16/38
f 33/20/42 38/21/43 37/11/33 28/10/29
f 31/22/44 33/20/42 28/10/29 25/6/28
f 34/16/38 33/20/42 31/22/44 32/15/39
f 38/21/43 33/20/42 34/16/38 42/18/41
f 4/2/2 2/1/1 24/1/23 26/2/26
f 1/5/5 4/2/2 26/2/26 23/5/27
f 5/7/7 3/6/6 25/6/28 27/7/32
f 2/1/1 5/7/7 27/7/32 24/1/23
f 7/14/14 8/17/17 30/17/37 29/14/36
f 9/22/22 10/15/15 32/15/39 31/22/44
f 10/15/15 7/14/14 29/14/36 32/15/39
f 3/6/6 9/22/22 31/22/44 25/6/28
f 18/13/13 22/12/12 44/12/35 40/13/34
f 22/12/12 19/4/4 41/4/24 44/12/35
f 20/18/18 16/21/21 38/21/43 42/18/41
f 8/17/17 17/19/19 39/19/40 30/17/37
f 14/8/8 18/13/13 40/13/34 36/8/31
f 15/11/11 13/9/9 35/9/30 37/11/33
f 21/3/3 1/5/5 23/5/27 43/3/25
f 17/19/19 20/18/18 42/18/41 39/19/40
f 16/21/21 15/11/11 37/11/33 38/21/43
f 13/9/9 14/8/8 36/8/31 35/9/30
f 19/4/4 21/3/3 43/3/25 41/4/24
