# Blender 4.0.2
# www.blender.org
mtllib PedacoB.mtl
o Plano.017
v -0.066100 0.061476 -0.290400
v -0.068213 -0.001361 -0.270781
v -0.063888 -0.061446 -0.209362
v 0.071162 0.025601 -0.365859
v 0.087813 -0.031799 -0.307064
v 0.076669 -0.006868 -0.346538
v -0.068680 -0.026945 -0.239936
v -0.060880 0.031143 -0.285878
v -0.045705 0.085582 -0.263268
v -0.065802 0.071034 -0.289149
v -0.060765 0.080309 -0.282323
v 0.069745 0.043650 -0.369274
v 0.084370 0.025594 -0.367232
v 0.059027 0.056216 -0.366409
v 0.050283 0.065990 -0.360096
v 0.031900 0.081473 -0.313871
v 0.109910 -0.006910 -0.349936
v 0.040923 0.075573 -0.345414
v 0.071368 -0.040102 -0.296556
v 0.095557 -0.031812 -0.307847
v 0.021438 -0.062287 -0.256225
v 0.020514 -0.114218 -0.239551
v 0.004399 -0.086454 -0.239745
v -0.061580 0.061588 -0.282613
v -0.065648 0.004824 -0.265143
v -0.064732 -0.055972 -0.203817
v 0.073724 0.028846 -0.357883
v 0.089304 -0.024321 -0.302310
v 0.078665 -0.000594 -0.340412
v -0.065523 -0.019553 -0.235541
v -0.056768 0.034306 -0.278594
v -0.043602 0.077034 -0.261544
v -0.061368 0.067241 -0.282118
v -0.057577 0.072820 -0.278236
v 0.073510 0.045392 -0.361298
v 0.085152 0.029439 -0.359146
v 0.063563 0.057102 -0.358659
v 0.054863 0.063248 -0.352675
v 0.034171 0.072645 -0.312147
v 0.110491 -0.000409 -0.343753
v 0.044351 0.068394 -0.340688
v 0.079320 -0.032957 -0.291647
v 0.095969 -0.024352 -0.302844
v 0.026200 -0.056200 -0.250493
v 0.024964 -0.111250 -0.232199
v 0.008861 -0.083486 -0.232394
vn 0.1749 0.2667 -0.9478
vn 0.4517 0.0246 -0.8918
vn -0.2979 -0.3388 -0.8925
vn 0.7193 -0.4056 -0.5640
vn -0.2341 -0.6584 -0.7153
vn 0.0497 0.4287 -0.9021
vn -0.9161 -0.1410 -0.3753
vn -0.9561 -0.0672 -0.2853
vn 0.5577 -0.8290 -0.0419
vn 0.1281 -0.9446 -0.3020
vn -0.1441 -0.7774 -0.6123
vn -0.7309 0.6802 0.0559
vn 0.2678 0.9118 -0.3112
vn 0.0616 0.7199 -0.6913
vn -0.9183 0.3197 -0.2336
vn 0.4896 0.8246 0.2833
vn -0.2329 0.7111 0.6634
vn -0.8831 -0.3109 -0.3514
vn 0.1867 -0.8249 -0.5335
vn -0.7469 -0.6645 0.0251
vn -0.8955 -0.3306 -0.2979
vn 0.4291 -0.2415 -0.8704
vn 0.3959 -0.7701 -0.5002
vn 0.7867 0.5624 0.2548
vn 0.3004 0.3369 0.8923
vn 0.6628 0.6738 0.3266
vn 0.2321 0.6559 0.7182
vn 0.8299 0.4854 0.2751
vn 0.7439 0.6160 0.2591
vn -0.3016 -0.0070 0.9534
vn -0.2267 0.3277 0.9172
vn 0.6781 0.2255 0.6995
vn 0.1464 0.7846 0.6025
vn 0.6070 -0.0873 0.7899
vn -0.4535 -0.5146 0.7276
vn -0.3873 -0.2327 0.8921
vn 0.7638 0.4248 0.4860
vn 0.8332 -0.1454 0.5336
vn 0.7051 -0.4132 0.5763
vn -0.0384 -0.4176 0.9078
vn -0.4897 0.6541 0.5764
vn -0.4645 0.6299 0.6225
vn -0.4681 0.1216 0.8752
vn 0.7196 -0.0573 0.6920
vn 0.8514 -0.3491 0.3914
vn 0.9828 0.0498 0.1780
vt 0.845943 0.067441
vt 0.847948 0.070422
vt 0.845882 0.070352
vt 0.851114 0.076816
vt 0.845727 0.076649
vt 0.844368 0.065381
vt 0.820777 0.069823
vt 0.820881 0.064834
vt 0.846920 0.085366
vt 0.845458 0.088018
vt 0.845522 0.085346
vt 0.820969 0.061138
vt 0.841042 0.061619
vt 0.842945 0.063778
vt 0.820916 0.063252
vt 0.838332 0.057233
vt 0.821055 0.056973
vt 0.820652 0.076129
vt 0.840287 0.095238
vt 0.820286 0.095003
vt 0.820488 0.084460
vt 0.836273 0.250434
vt 0.837214 0.255576
vt 0.843136 0.257194
vt 0.825166 0.260457
s 1
usemtl Materiais
f 12/1/1 13/2/2 4/3/3
f 13/2/2 17/4/4 6/5/5 4/3/3
f 14/6/6 12/1/1 4/3/3 8/7/7 1/8/8
f 20/9/9 19/10/10 5/11/11
f 17/4/4 20/9/9 5/11/11 6/5/5
f 11/12/12 18/13/13 15/14/14 10/15/15
f 16/16/16 18/13/13 11/12/12 9/17/17
f 15/14/14 14/6/6 1/8/8 10/15/15
f 4/3/3 6/5/5 2/18/18 8/7/7
f 5/11/11 19/10/10 21/19/19 3/20/20 7/21/21
f 6/5/5 5/11/11 7/21/21 2/18/18
f 21/22/19 23/23/22 22/24/23 3/25/20
f 35/1/24 27/3/25 36/2/26
f 36/2/26 27/3/25 29/5/27 40/4/28
f 37/6/29 24/8/30 31/7/31 27/3/25 35/1/24
f 43/9/32 28/11/33 42/10/34
f 40/4/28 29/5/27 28/11/33 43/9/32
f 34/12/35 33/15/36 38/14/37 41/13/38
f 39/16/39 32/17/40 34/12/35 41/13/38
f 38/14/37 33/15/36 24/8/30 37/6/29
f 27/3/25 31/7/31 25/18/41 29/5/27
f 28/11/33 30/21/42 26/20/43 44/19/44 42/10/34
f 29/5/27 25/18/41 30/21/42 28/11/33
f 44/22/44 26/25/43 45/24/45 46/23/46
f 10/15/15 1/8/8 24/8/30 33/15/36
f 9/17/17 11/12/12 34/12/35 32/17/40
f 11/12/12 10/15/15 33/15/36 34/12/35
f 16/16/16 9/17/17 32/17/40 39/16/39
f 8/7/7 2/18/18 25/18/41 31/7/31
f 1/8/8 8/7/7 31/7/31 24/8/30
f 7/21/21 3/20/20 26/20/43 30/21/42
f 2/18/18 7/21/21 30/21/42 25/18/41
f 15/14/14 18/13/13 41/13/38 38/14/37
f 17/4/4 13/2/2 36/2/26 40/4/28
f 12/1/1 14/6/6 37/6/29 35/1/24
f 18/13/13 16/16/16 39/16/39 41/13/38
f 14/6/6 15/14/14 38/14/37 37/6/29
f 13/2/2 12/1/1 35/1/24 36/2/26
f 20/9/9 17/4/4 40/4/28 43/9/32
f 19/10/10 20/9/9 43/9/32 42/10/34
f 21/19/19 19/10/10 42/10/34 44/19/44
f 23/23/22 21/22/19 44/22/44 46/23/46
f 22/24/23 23/23/22 46/23/46 45/24/45
f 3/25/20 22/24/23 45/24/45 26/25/43
