# Blender 4.0.2
# www.blender.org
mtllib PedacoF.mtl
o Plano.020
v -0.038327 0.039816 -0.338419
v -0.046991 0.006596 -0.333149
v 0.047270 0.062072 -0.208230
v -0.030855 0.072054 -0.287844
v 0.039472 0.037159 -0.263307
v 0.029881 -0.041763 -0.288916
v 0.042515 0.046882 -0.258350
v -0.033792 0.053351 -0.335123
v -0.028820 -0.037971 -0.296281
v 0.006688 -0.058867 -0.275104
v -0.027088 -0.050914 -0.233857
v -0.023269 -0.050914 -0.230419
v -0.030637 0.065649 -0.322133
v 0.045488 0.056379 -0.243585
v 0.047750 0.007940 -0.263496
v -0.043980 0.040453 -0.331739
v -0.052711 0.009387 -0.326796
v 0.045938 0.053302 -0.206751
v -0.034493 0.060091 -0.286365
v 0.033457 0.036909 -0.256627
v 0.023756 -0.038193 -0.282576
v 0.037468 0.041985 -0.252745
v -0.040208 0.049090 -0.328875
v -0.033554 -0.032402 -0.291029
v 0.003243 -0.053586 -0.270495
v -0.030243 -0.043258 -0.230352
v -0.026425 -0.043258 -0.226914
v -0.035961 0.056154 -0.318067
v 0.043292 0.048006 -0.241146
v 0.040776 0.011519 -0.256937
vn 0.4444 0.5761 0.6860
vn 0.8808 0.4199 -0.2188
vn -0.1732 0.8699 -0.4618
vn -0.4865 0.8554 0.1779
vn -0.0307 0.5541 -0.8319
vn 0.9376 -0.0276 -0.3466
vn 0.9706 -0.0689 -0.2306
vn 0.9730 -0.2203 0.0683
vn 0.7572 -0.5904 -0.2794
vn -0.3024 -0.2690 -0.9144
vn -0.0640 0.2231 -0.9727
vn 0.3759 -0.9255 0.0471
vn 0.1524 -0.6835 0.7139
vn -0.6591 -0.7441 0.1093
vn -0.4376 -0.7473 -0.5001
vn 0.2636 -0.4873 0.8325
vn -0.8528 -0.3638 0.3747
vn -0.9742 -0.0608 0.2173
vn 0.5113 -0.8476 0.1418
vn -0.9502 0.2994 0.0868
vn 0.1499 -0.7409 0.6546
vn -0.1320 -0.1340 0.9822
vn -0.9828 0.1844 -0.0053
vn -0.9844 -0.1425 0.1036
vn 0.2061 -0.1324 0.9695
vn 0.1332 -0.0799 0.9879
vn 0.6152 0.3947 0.6825
vn -0.8830 0.1612 0.4408
vn -0.6429 0.3700 0.6707
vn 0.2224 0.3154 0.9225
vt 0.922099 0.060248
vt 0.917114 0.064387
vt 0.898158 0.063577
vt 0.901509 0.059406
vt 0.896848 0.065622
vt 0.914955 0.066456
vt 0.913995 0.068034
vt 0.913561 0.069587
vt 0.906650 0.072680
vt 0.896124 0.072132
vt 0.896345 0.067186
vt 0.905930 0.078963
vt 0.909134 0.087731
vt 0.908182 0.087666
vt 0.900640 0.078654
s 1
usemtl Materiais
f 3/1/1 14/2/2 13/3/3 4/4/4
f 8/5/5 13/3/3 14/2/2 7/6/6
f 5/7/7 15/8/8 6/9/9 2/10/10 1/11/11
f 10/12/12 12/13/13 11/14/14 9/15/15
f 6/9/9 10/12/12 9/15/15 2/10/10
f 7/6/6 5/7/7 1/11/11 8/5/5
f 18/1/16 19/4/17 28/3/18 29/2/19
f 23/5/20 22/6/21 29/2/19 28/3/18
f 20/7/22 16/11/23 17/10/24 21/9/25 30/8/26
f 25/12/27 24/15/28 26/14/29 27/13/30
f 21/9/25 17/10/24 24/15/28 25/12/27
f 22/6/21 23/5/20 16/11/23 20/7/22
f 1/11/11 2/10/10 17/10/24 16/11/23
f 3/1/1 4/4/4 19/4/17 18/1/16
f 11/14/14 12/13/13 27/13/30 26/14/29
f 7/6/6 14/2/2 29/2/19 22/6/21
f 13/3/3 8/5/5 23/5/20 28/3/18
f 15/8/8 5/7/7 20/7/22 30/8/26
f 6/9/9 15/8/8 30/8/26 21/9/25
f 12/13/13 10/12/12 25/12/27 27/13/30
f 9/15/15 11/14/14 26/14/29 24/15/28
f 10/12/12 6/9/9 21/9/25 25/12/27
f 2/10/10 9/15/15 24/15/28 17/10/24
f 5/7/7 7/6/6 22/6/21 20/7/22
f 8/5/5 1/11/11 16/11/23 23/5/20
f 14/2/2 3/1/1 18/1/16 29/2/19
f 4/4/4 13/3/3 28/3/18 19/4/17
