# Blender 4.0.2
# www.blender.org
mtllib PedacoE.mtl
o Plano.019
v 0.065827 0.043576 -0.335123
v 0.065850 0.056336 -0.287844
v -0.072649 0.051719 -0.377823
v -0.077014 0.042943 -0.386957
v 0.059353 0.053318 -0.329006
v 0.063784 0.043572 -0.336961
v -0.073841 0.056098 -0.352322
v 0.045885 0.058012 -0.306800
v 0.058049 -0.008245 -0.333149
v 0.064332 0.033396 -0.338419
v 0.066889 0.053168 -0.322133
v -0.031238 -0.019478 -0.360287
v -0.016264 -0.074792 -0.336522
v -0.069057 0.034606 -0.384877
v -0.028833 -0.042803 -0.355912
v -0.056048 -0.004427 -0.366638
v 0.054106 0.032806 -0.322407
v 0.062477 0.036198 -0.284554
v -0.082670 0.034744 -0.367838
v -0.085395 0.031809 -0.370910
v 0.053815 0.035618 -0.320060
v 0.054572 0.034473 -0.321389
v -0.082958 0.036609 -0.348112
v 0.043331 0.037892 -0.303047
v 0.052574 -0.001409 -0.314820
v 0.057550 0.033380 -0.319613
v 0.061406 0.034104 -0.316461
v -0.036682 -0.014247 -0.341617
v -0.018929 -0.058722 -0.320293
v -0.073820 0.030865 -0.365938
v -0.033527 -0.034366 -0.337695
v -0.062943 0.001439 -0.347968
vn -0.0725 -0.9784 -0.1937
vn -0.4880 -0.4547 -0.7450
vn 0.8292 -0.4963 -0.2569
vn 0.4303 0.5491 0.7165
vn 0.8374 0.5054 -0.2080
vn 0.2716 0.8609 -0.4303
vn -0.2349 0.8830 0.4064
vn 0.9068 0.2362 -0.3491
vn 0.8855 -0.0030 -0.4646
vn 0.4685 0.4084 -0.7834
vn -0.3357 0.8460 -0.4142
vn -0.4557 0.1791 -0.8719
vn -0.0488 -0.3970 -0.9165
vn -0.5143 0.7953 0.3209
vn -0.4936 -0.5503 -0.6734
vn -0.3996 -0.6666 -0.6292
vn -0.3728 -0.4548 0.8088
vn 0.4228 -0.1432 0.8948
vn -0.8866 -0.0274 0.4617
vn 0.2207 -0.5332 0.8167
vn -0.4482 -0.6024 0.6605
vn -0.2516 -0.8740 0.4158
vn 0.6020 -0.7960 0.0630
vn 0.9299 -0.3033 0.2082
vn -0.3656 -0.0862 0.9268
vn 0.6718 0.1896 0.7160
vn -0.9122 -0.1949 0.3603
vn -0.8899 -0.4536 -0.0475
vn -0.8329 -0.0568 0.5506
vn -0.7665 -0.3938 0.5073
vn -0.7514 -0.3417 0.5645
vn -0.7926 -0.3201 0.5189
vt 0.887896 0.076060
vt 0.884573 0.071703
vt 0.896124 0.072132
vt 0.901509 0.059406
vt 0.898158 0.063577
vt 0.896500 0.063506
vt 0.896606 0.059205
vt 0.896848 0.065622
vt 0.896345 0.067186
vt 0.896415 0.065602
vt 0.871326 0.062519
vt 0.871250 0.064660
vt 0.873073 0.066308
vt 0.871420 0.058229
vt 0.883344 0.070051
vt 0.879130 0.071501
s 1
usemtl Materiais
f 13/1/1 15/2/2 9/3/3
f 2/4/4 11/5/5 5/6/6 8/7/7
f 1/8/8 10/9/9 6/10/10
f 3/11/11 5/6/6 6/10/10 4/12/12
f 5/6/6 11/5/5 1/8/8 6/10/10
f 6/10/10 10/9/9 14/13/13 4/12/12
f 8/7/7 5/6/6 3/11/11 7/14/14
f 10/9/9 9/3/3 15/2/2 12/15/15 16/16/16 14/13/13
f 29/1/17 25/3/18 31/2/19
f 18/4/20 24/7/21 21/6/22 27/5/23
f 17/8/24 22/10/25 26/9/26
f 19/11/27 20/12/28 22/10/25 21/6/22
f 21/6/22 22/10/25 17/8/24 27/5/23
f 22/10/25 20/12/28 30/13/29 26/9/26
f 24/7/21 23/14/30 19/11/27 21/6/22
f 26/9/26 30/13/29 32/16/31 28/15/32 31/2/19 25/3/18
f 14/13/13 16/16/16 32/16/31 30/13/29
f 4/12/12 14/13/13 30/13/29 20/12/28
f 11/5/5 2/4/4 18/4/20 27/5/23
f 10/9/9 1/8/8 17/8/24 26/9/26
f 1/8/8 11/5/5 27/5/23 17/8/24
f 7/14/14 3/11/11 19/11/27 23/14/30
f 3/11/11 4/12/12 20/12/28 19/11/27
f 8/7/7 7/14/14 23/14/30 24/7/21
f 2/4/4 8/7/7 24/7/21 18/4/20
f 9/3/3 10/9/9 26/9/26 25/3/18
f 16/16/16 12/15/15 28/15/32 32/16/31
f 12/15/15 15/2/2 31/2/19 28/15/32
f 15/2/2 13/1/1 29/1/17 31/2/19
f 13/1/1 9/3/3 25/3/18 29/1/17
